<?xml version="1.0" standalone="no"?>
<!DOCTYPE svg PUBLIC "-//W3C//DTD SVG 20010904//EN"
 "http://www.w3.org/TR/2001/REC-SVG-20010904/DTD/svg10.dtd">
<svg version="1.0" xmlns="http://www.w3.org/2000/svg"
 width="567.211055pt" height="1288.855118pt" viewBox="0 0 567.211055 1288.855118"
 preserveAspectRatio="xMidYMid meet">
<metadata>
Created by potrace 1.16, written by Peter Selinger 2001-2019
</metadata>
<g transform="translate(-20.226371,1442.855118) scale(0.100000,-0.100000)"
fill="#000000" stroke="none">
<path d="M2880 14415 c-164 -40 -287 -142 -339 -279 -30 -82 -43 -205 -34
-323 l9 -102 -24 6 c-57 14 -83 -67 -62 -195 22 -138 73 -232 126 -232 18 0
23 -8 28 -42 4 -23 16 -63 28 -88 17 -38 21 -72 25 -211 7 -221 5 -228 -96
-279 -43 -21 -129 -59 -192 -83 -122 -48 -471 -161 -529 -172 -188 -35 -357
-160 -442 -328 -66 -131 -93 -258 -104 -477 -3 -73 -18 -188 -35 -275 -47
-245 -77 -470 -108 -813 -18 -194 -19 -203 -56 -279 -97 -201 -133 -361 -175
-758 -28 -266 -44 -371 -87 -549 l-36 -150 -129 -124 c-71 -69 -149 -155 -173
-192 -42 -64 -225 -250 -245 -250 -5 0 -14 -9 -20 -21 -29 -52 29 -107 99 -94
67 12 118 42 187 110 59 56 69 63 72 46 4 -25 -15 -122 -67 -351 -49 -209 -52
-276 -17 -309 31 -29 68 -22 93 16 10 14 30 72 44 127 35 128 37 109 4 -36
-33 -147 -33 -190 1 -217 15 -12 34 -21 44 -21 24 0 69 47 76 79 3 14 10 37
15 51 7 21 8 20 3 -8 -8 -47 17 -82 60 -82 45 0 65 25 98 123 17 51 27 72 27
55 1 -30 24 -58 49 -58 56 0 86 65 132 287 17 81 43 200 57 263 23 100 26 141
28 320 l2 205 41 112 c72 196 139 373 207 548 161 409 203 555 212 735 5 107
10 131 76 340 38 124 86 287 106 363 l37 138 18 -93 c9 -51 42 -199 72 -328
63 -270 63 -225 8 -606 -19 -137 -34 -282 -34 -335 0 -63 -10 -143 -30 -244
-35 -179 -66 -382 -75 -485 -4 -41 -15 -136 -26 -210 -61 -434 -87 -938 -70
-1311 18 -370 42 -602 106 -1024 70 -460 69 -506 -19 -920 -78 -368 -83 -647
-20 -1130 119 -920 124 -970 130 -1250 8 -313 -6 -426 -71 -590 -74 -187 -126
-280 -210 -375 -81 -92 -121 -160 -131 -227 -7 -51 12 -89 51 -99 14 -3 25
-10 25 -15 0 -21 42 -49 74 -49 24 0 38 -7 48 -22 12 -17 25 -22 59 -23 25 0
54 -7 69 -18 27 -19 81 -22 111 -6 16 8 26 5 50 -15 24 -20 41 -26 81 -26 83
0 148 44 193 130 11 21 33 56 49 79 24 34 30 57 42 153 19 167 23 178 57 197
47 25 86 61 102 92 19 36 19 109 0 179 -11 40 -14 82 -9 155 4 72 1 115 -9
154 -19 70 -7 406 23 666 22 190 96 640 155 942 54 285 67 396 67 615 0 194
-8 287 -39 503 -18 131 -13 412 11 515 8 36 33 216 56 400 23 184 66 508 95
720 80 573 105 813 105 1026 l0 114 29 0 28 0 6 -217 c6 -228 30 -456 92 -893
19 -135 60 -443 90 -685 31 -242 63 -476 71 -520 24 -125 22 -339 -7 -525 -20
-134 -23 -192 -24 -430 0 -294 2 -311 66 -650 37 -192 94 -531 113 -670 49
-351 73 -805 48 -915 -9 -40 -12 -91 -9 -150 5 -71 2 -106 -14 -168 -33 -127
-15 -178 87 -243 49 -31 53 -38 63 -86 5 -29 13 -82 16 -118 9 -98 24 -145 60
-187 18 -21 35 -48 39 -61 32 -101 183 -156 270 -97 29 19 41 23 56 15 32 -17
85 -12 105 10 14 16 26 19 48 14 32 -7 83 11 91 32 3 8 19 14 39 14 32 0 67
24 67 46 0 6 16 16 35 23 43 15 52 45 37 120 -13 59 -28 84 -112 184 -79 94
-131 186 -206 365 -82 198 -89 246 -88 602 1 300 12 418 95 1010 68 481 79
595 79 805 0 239 -29 479 -85 705 -7 30 -21 109 -30 175 -21 147 -16 249 24
505 105 663 131 951 131 1470 0 429 -16 661 -65 960 -13 80 -26 179 -30 220
-8 104 -52 382 -81 520 -16 76 -24 149 -24 215 -1 55 -10 156 -20 225 -11 69
-30 202 -42 297 l-22 172 22 93 c87 377 122 536 123 558 0 14 11 -15 25 -65
52 -191 86 -306 138 -465 46 -143 54 -179 59 -270 11 -197 44 -316 227 -795
65 -170 144 -382 175 -470 l57 -160 3 -205 c2 -204 2 -206 53 -450 70 -336 99
-410 157 -410 28 0 55 30 56 61 0 13 8 -2 18 -36 30 -104 59 -145 102 -145 38
0 59 24 60 68 0 36 1 36 17 -17 30 -96 104 -120 139 -46 16 33 15 41 -12 172
-36 177 -40 206 -15 113 44 -159 51 -180 72 -200 29 -27 54 -25 83 5 18 17 25
35 25 64 0 40 -44 264 -80 411 -21 86 -35 190 -25 190 4 0 34 -27 68 -59 120
-114 233 -142 282 -67 22 33 6 63 -61 113 -63 48 -148 139 -202 219 -22 34
-99 117 -170 185 l-129 124 -37 150 c-43 179 -59 282 -86 556 -36 374 -72 537
-160 730 -35 76 -52 126 -55 167 -3 31 -10 116 -15 187 -21 262 -73 651 -110
825 -10 47 -21 142 -24 212 -14 276 -58 426 -171 576 -81 108 -204 185 -345
217 -188 42 -604 187 -750 260 -108 54 -105 48 -105 259 0 162 2 186 22 231
11 28 24 69 28 93 5 31 11 42 25 42 50 0 102 79 126 189 31 149 9 248 -55 239
l-26 -4 8 91 c19 225 -26 380 -143 488 -65 60 -142 101 -232 122 -77 18 -243
18 -318 0z m302 -16 c133 -27 262 -118 314 -220 49 -99 57 -156 51 -369 -4
-125 -3 -190 3 -180 5 8 10 25 10 37 0 13 8 24 20 28 23 7 36 1 50 -26 10 -18
8 -19 -13 -14 -40 10 -72 -44 -73 -125 -2 -46 -9 -81 -28 -122 -14 -31 -26
-65 -26 -75 0 -47 -44 -173 -78 -222 -38 -56 -172 -176 -232 -206 -43 -23
-178 -32 -236 -16 -51 14 -104 49 -194 130 -97 86 -116 119 -149 253 -16 63
-38 136 -50 163 -15 34 -19 58 -15 85 4 26 0 51 -14 84 -22 49 -46 66 -65 47
-8 -8 -6 -11 9 -11 15 0 26 -12 39 -39 16 -36 16 -41 1 -62 -9 -13 -16 -33
-15 -44 0 -13 4 -9 10 13 12 41 24 42 15 1 -3 -17 -1 -40 5 -51 10 -18 9 -20
-7 -14 -11 4 -6 -5 13 -21 22 -20 33 -40 37 -70 13 -92 -63 -27 -96 81 -27 90
-31 227 -7 252 25 24 54 10 67 -34 8 -30 9 -17 4 68 -14 236 -4 343 44 446 48
103 172 197 300 228 72 17 234 20 306 5z m458 -801 c-1 -127 -67 -288 -118
-288 -12 0 -13 9 -8 42 4 23 11 45 15 48 19 12 40 82 34 113 -6 30 -5 31 13
17 18 -15 18 -14 1 13 -14 22 -15 31 -6 50 19 36 30 47 50 47 16 0 19 -8 19
-42z m-915 -584 c96 -90 176 -141 231 -150 25 -3 81 -4 123 -2 98 6 137 27
255 139 l86 81 1 -158 c1 -88 5 -172 8 -189 10 -42 -12 -76 -73 -114 -185
-112 -562 -89 -684 42 -23 24 -23 27 -13 123 5 55 7 143 3 197 -4 53 -7 97 -7
97 0 0 32 -30 70 -66z m-20 -405 c134 -89 384 -110 569 -48 76 26 116 50 155
94 l30 34 43 -24 c83 -46 265 -118 466 -185 111 -37 205 -70 208 -73 8 -8
-260 -55 -406 -72 -259 -28 -507 -38 -860 -32 -368 6 -561 21 -805 62 -249 43
-243 34 -70 89 275 88 560 203 579 235 5 8 15 0 30 -21 12 -18 39 -44 61 -59z
m-839 -286 c25 -101 29 -336 9 -558 -9 -110 -15 -229 -13 -265 l5 -65 -101 17
c-113 19 -316 38 -412 38 -45 0 -64 4 -64 13 1 80 24 307 39 375 49 223 157
375 326 457 79 39 176 67 189 55 4 -5 15 -34 22 -67z m2563 12 c219 -104 331
-305 360 -648 6 -71 11 -144 11 -163 l0 -34 -85 0 c-100 0 -348 -25 -439 -44
l-63 -13 -6 161 c-4 89 -11 220 -17 291 -16 177 -1 405 31 486 l11 27 61 -14
c34 -8 95 -30 136 -49z m-2459 31 c196 -43 466 -72 821 -86 457 -19 1046 20
1332 89 42 10 77 17 77 15 0 -2 -7 -29 -15 -61 -26 -98 -30 -296 -10 -564 22
-302 19 -338 -39 -417 -49 -66 -118 -115 -209 -146 -61 -21 -74 -21 -859 -24
-856 -3 -874 -2 -982 49 -59 27 -158 117 -180 163 -26 56 -29 159 -11 371 24
268 16 502 -19 613 -7 20 -5 23 11 18 10 -3 47 -12 83 -20z m-460 -906 c139
-11 330 -38 349 -50 14 -8 30 -158 31 -281 0 -138 -43 -324 -161 -692 l-60
-188 -31 26 c-35 29 -105 67 -158 83 -96 31 -254 34 -323 6 -18 -6 -19 -2 -12
72 25 310 75 693 111 869 33 158 31 153 62 158 47 7 64 7 192 -3z m3261 4 l36
-6 26 -147 c40 -220 85 -597 103 -855 7 -93 6 -99 -11 -92 -10 3 -48 11 -84
16 -133 19 -306 -27 -399 -105 l-31 -26 -51 158 c-29 87 -77 250 -107 363 -45
169 -55 225 -60 316 -8 149 4 321 23 328 23 9 223 36 329 45 133 11 183 12
226 5z m-2751 -229 c21 -15 70 -39 107 -54 l68 -26 812 -3 c896 -3 886 -4
1004 59 32 18 81 55 109 85 l50 53 0 -182 c0 -138 -5 -206 -19 -282 -23 -121
-119 -539 -131 -571 -6 -16 -20 -24 -47 -28 -349 -56 -1415 -59 -1828 -5 -44
6 -81 12 -82 13 -4 4 -120 515 -136 601 -9 45 -17 160 -20 266 l-4 186 38 -42
c22 -23 57 -55 79 -70z m-616 -880 c135 -24 276 -110 250 -153 -17 -27 -83
-44 -174 -45 -103 0 -185 16 -265 53 -75 34 -98 58 -89 94 8 33 16 38 84 52
73 16 100 16 194 -1z m3514 -11 c19 -8 36 -24 43 -41 9 -24 7 -30 -13 -47 -34
-28 -114 -63 -188 -82 -125 -32 -306 -16 -334 29 -21 32 84 110 184 137 113
31 239 32 308 4z m-2558 -103 c471 -34 1267 -21 1606 24 l51 7 7 -83 c4 -46
20 -171 36 -277 17 -106 33 -246 37 -311 l6 -118 -56 -21 c-115 -44 -294 -66
-662 -83 -532 -25 -1150 12 -1345 79 l-55 19 1 124 c1 79 11 183 28 284 14 88
31 212 38 275 l12 116 70 -12 c39 -7 141 -17 226 -23z m-1160 -45 c88 -40 167
-57 270 -57 87 0 120 5 174 27 18 7 19 3 13 -82 -13 -163 -53 -307 -174 -614
-36 -91 -109 -280 -162 -421 l-97 -256 -34 28 c-61 51 -174 92 -270 97 l-85 4
27 137 c15 75 39 244 53 376 45 427 77 579 161 766 l27 60 21 -20 c12 -11 46
-31 76 -45z m3864 -146 c42 -128 69 -289 96 -565 25 -258 54 -445 86 -546 4
-14 -8 -17 -83 -21 -98 -5 -197 -38 -267 -89 -22 -16 -43 -26 -47 -22 -4 5
-24 55 -44 113 -21 58 -84 227 -142 375 -181 466 -223 608 -239 802 l-7 83 34
-17 c56 -28 227 -30 323 -4 85 23 165 60 186 86 12 15 17 11 42 -37 15 -29 43
-100 62 -158z m-2861 -650 c191 -32 420 -44 842 -44 520 0 817 24 980 79 39
13 72 22 74 20 19 -19 123 -686 109 -700 -2 -2 -58 -10 -125 -19 -272 -36
-510 -122 -697 -254 -91 -64 -205 -162 -251 -217 -41 -47 -51 -53 -90 -57 -44
-3 -45 -2 -142 92 -281 273 -560 401 -970 445 l-63 7 0 33 c0 73 84 603 105
662 3 9 19 7 60 -8 31 -11 106 -28 168 -39z m-1193 -515 c66 -17 170 -68 193
-93 15 -17 15 -22 0 -76 -10 -35 -21 -55 -28 -52 -42 16 -329 106 -338 106 -7
0 -18 4 -25 9 -13 8 -8 45 13 109 6 17 116 16 185 -3z m4261 -46 l16 -56 -61
-17 c-59 -16 -284 -88 -318 -101 -13 -5 -19 5 -33 51 l-17 58 29 24 c77 64
193 102 297 99 l70 -2 17 -56z m-4252 -144 l169 -55 7 -94 c4 -52 4 -127 0
-168 -6 -69 -41 -269 -47 -272 -2 -1 -33 -10 -70 -19 -126 -32 -288 -20 -415
31 -29 12 -53 20 -53 17 0 -2 20 -16 44 -30 l44 -26 -30 -92 c-16 -51 -45
-150 -64 -222 -24 -90 -41 -135 -55 -147 -26 -22 -33 -22 -53 -2 -23 22 -20
91 10 219 66 286 84 373 84 411 0 39 2 41 43 54 145 43 274 170 301 295 4 18
-8 1 -29 -40 -61 -120 -185 -221 -294 -241 -36 -7 -125 -71 -162 -118 -43 -55
-177 -87 -213 -50 -23 23 -20 33 21 68 85 72 177 164 211 211 89 125 123 163
217 247 117 105 86 103 334 23z m4387 -34 c76 -68 133 -130 181 -198 63 -88
148 -177 241 -255 36 -30 39 -40 16 -62 -19 -20 -93 -21 -138 -2 -18 8 -68 45
-110 84 -63 57 -90 74 -154 97 -139 49 -216 119 -269 244 -20 46 -23 50 -18
21 19 -116 148 -247 281 -286 l54 -15 0 -45 c0 -24 23 -146 51 -272 57 -255
65 -335 35 -358 -46 -33 -61 -9 -110 176 -25 91 -53 193 -64 227 l-20 63 55
31 c30 17 52 33 50 35 -2 2 -30 -8 -61 -22 -32 -14 -81 -32 -109 -40 -68 -18
-228 -18 -297 1 -64 17 -83 19 -76 6 4 -5 29 -15 56 -22 37 -10 52 -18 55 -33
26 -132 49 -281 50 -320 1 -101 -67 -76 -100 37 -29 101 -106 500 -117 606 -6
61 -8 145 -3 194 l7 86 136 45 c130 43 235 74 257 75 6 1 60 -44 121 -98z
m-3405 54 c268 -35 459 -105 669 -246 111 -74 320 -272 280 -265 -14 3 -107 7
-206 11 -217 7 -467 26 -738 56 l-198 23 6 60 c9 86 46 349 51 364 5 15 6 15
136 -3z m2226 -65 c32 -185 50 -352 39 -355 -16 -5 -268 -33 -451 -50 -142
-13 -350 -26 -617 -39 l-88 -4 20 29 c65 91 305 272 452 342 152 72 340 125
524 147 111 13 107 15 121 -70z m-2272 -395 c176 -21 568 -53 740 -60 83 -3
183 -8 223 -11 l72 -6 0 -117 c0 -193 -33 -506 -110 -1036 -22 -148 -55 -400
-75 -560 -19 -159 -37 -301 -40 -314 l-6 -24 -37 35 c-77 74 -197 116 -352
125 -175 9 -313 -32 -408 -121 l-49 -46 -31 213 c-80 534 -105 827 -105 1252
0 261 16 635 28 673 5 15 5 15 150 -3z m2332 -82 c4 -54 8 -291 8 -528 -1
-527 -19 -744 -108 -1319 l-32 -206 -38 40 c-39 42 -98 76 -187 106 -85 29
-289 27 -390 -5 -95 -29 -141 -53 -190 -97 -39 -35 -39 -35 -44 -12 -3 13 -24
172 -46 353 -22 182 -54 420 -70 530 -66 448 -100 790 -100 996 l0 147 128 6
c351 18 744 49 937 75 33 5 74 9 92 10 l31 1 9 -97z m-3181 -272 c-44 -206
-73 -266 -120 -248 -21 8 -21 61 0 163 9 44 22 115 28 159 l11 79 55 16 c40
12 56 13 58 4 2 -6 -13 -84 -32 -173z m-314 157 c29 -6 54 -12 55 -13 6 -3
-118 -482 -132 -512 -11 -26 -21 -33 -43 -33 -35 0 -52 16 -52 51 0 15 16 100
36 190 19 90 42 201 52 247 9 45 19 82 23 82 4 0 31 -5 61 -12z m4612 -225
c46 -229 55 -300 41 -322 -12 -20 -64 -12 -79 12 -13 19 -140 517 -134 522 3
2 95 22 113 24 6 0 32 -106 59 -236z m-4408 195 c-91 -414 -120 -498 -171
-498 -44 0 -48 28 -21 147 14 60 34 162 46 228 11 66 23 125 24 131 2 6 32 12
65 13 60 2 61 1 57 -21z m4222 -63 c7 -44 26 -144 43 -222 35 -164 35 -206 1
-211 -54 -8 -79 51 -137 313 -20 88 -38 170 -41 183 -4 22 -3 23 58 20 l62 -3
14 -80z m-2676 -1728 c93 -30 170 -77 197 -120 19 -32 19 -34 1 -137 -26 -149
-111 -335 -196 -430 -68 -75 -211 -105 -334 -71 -122 34 -243 253 -276 495
-14 106 -14 109 7 142 23 38 83 83 144 109 120 51 319 56 457 12z m1398 4 c79
-25 161 -78 188 -123 20 -32 20 -37 7 -143 -19 -148 -55 -250 -130 -366 -54
-83 -94 -114 -175 -135 -79 -20 -155 -13 -228 23 -68 32 -123 105 -199 262
-46 93 -59 133 -74 220 l-18 106 21 31 c87 127 400 191 608 125z m-1925 -590
c50 -95 95 -145 161 -177 46 -22 69 -27 137 -27 135 -1 209 36 282 138 24 33
59 92 77 130 l33 70 1 -162 0 -162 -45 -20 c-90 -38 -198 -55 -341 -54 -151 1
-253 22 -341 69 -83 46 -83 46 -65 166 8 57 18 126 22 153 l7 50 18 -52 c9
-29 34 -84 54 -122z m2145 -85 c12 -58 5 -69 -69 -110 -160 -87 -465 -95 -671
-17 l-55 21 0 162 0 163 37 -72 c50 -99 89 -153 143 -201 56 -49 117 -67 218
-66 109 2 172 34 234 118 43 57 122 208 124 237 1 8 7 -31 15 -86 7 -55 18
-122 24 -149z m-2172 -136 c156 -77 445 -88 627 -23 39 13 77 27 85 29 13 4
18 -11 28 -78 26 -180 34 -338 29 -528 -6 -202 -18 -300 -68 -555 -85 -433
-159 -944 -175 -1212 l-7 -113 -31 19 c-105 64 -359 79 -477 27 -14 -6 -17 10
-23 136 -7 161 -34 399 -107 948 -66 500 -76 651 -60 870 12 169 37 350 67
483 l16 69 27 -25 c14 -14 45 -35 69 -47z m2206 -20 c55 -258 78 -589 57 -830
-7 -74 -32 -277 -56 -450 -71 -507 -99 -750 -120 -1051 l-7 -86 -41 15 c-62
23 -273 22 -352 -2 -33 -10 -74 -26 -91 -37 l-31 -19 -6 143 c-8 159 -26 329
-63 587 -22 153 -45 285 -134 767 -30 163 -43 352 -37 543 6 171 32 428 45
442 4 3 45 -6 92 -22 161 -54 354 -61 518 -19 74 19 192 74 192 90 0 5 4 9 8
9 5 0 16 -36 26 -80z m-1800 -2430 c35 -11 75 -30 90 -41 27 -21 27 -24 24
-105 -2 -71 -5 -83 -18 -77 -103 46 -157 57 -285 57 -98 0 -141 -4 -174 -17
-24 -9 -45 -17 -47 -17 -2 0 -4 40 -4 90 l0 89 30 16 c74 38 268 40 384 5z
m1558 20 c114 -17 114 -17 121 -123 3 -51 4 -93 3 -95 -2 -1 -23 5 -47 13
-104 37 -292 28 -411 -19 l-57 -23 -3 81 c-2 45 1 87 7 95 16 23 92 52 169 66
88 16 133 17 218 5z m-1577 -225 c109 -29 128 -43 143 -105 12 -51 11 -103 -3
-245 -3 -27 -2 -43 1 -35 10 22 34 -66 34 -127 0 -58 -27 -101 -83 -129 -27
-15 -29 -15 -24 0 4 9 2 16 -3 16 -6 0 -10 -1 -10 -3 0 -1 -9 -30 -21 -62 -12
-33 -27 -113 -35 -179 -12 -103 -17 -123 -41 -153 -16 -19 -36 -51 -46 -71
-40 -79 -101 -122 -172 -122 -103 0 -122 61 -51 157 43 57 71 143 47 143 -6 0
-14 -18 -17 -41 -4 -25 -20 -57 -42 -82 -32 -39 -52 -76 -66 -119 -10 -34
-100 -35 -113 -1 -8 20 20 102 59 171 16 30 28 58 26 64 -6 17 -63 -80 -89
-151 -26 -69 -50 -88 -93 -71 -17 6 -25 17 -24 32 1 39 30 120 59 167 30 46
35 61 22 61 -14 -1 -56 -74 -83 -145 -20 -52 -33 -71 -48 -73 -29 -4 -62 15
-62 37 0 29 39 134 60 163 31 42 23 57 -9 18 -16 -19 -37 -61 -47 -92 -14 -48
-21 -58 -39 -58 -35 0 -48 23 -40 72 12 70 29 102 110 195 99 114 141 185 216
368 50 122 64 168 75 250 7 55 14 106 14 112 0 18 51 42 112 53 69 12 207 5
283 -15z m1651 -2 l52 -16 11 -74 c6 -41 11 -85 11 -98 0 -26 94 -264 143
-360 38 -77 93 -157 160 -237 80 -94 108 -162 93 -224 -5 -20 -12 -25 -34 -22
-23 3 -30 11 -44 55 -9 29 -29 68 -45 87 -30 39 -56 50 -29 14 25 -34 63 -119
71 -157 7 -33 7 -34 -24 -29 -17 2 -31 1 -31 -4 0 -4 14 -8 31 -8 27 0 30 -2
19 -15 -15 -18 -54 -20 -68 -2 -6 6 -20 37 -32 67 -24 60 -71 140 -82 140 -15
0 -8 -22 17 -55 14 -18 34 -56 44 -84 10 -28 21 -54 24 -58 12 -12 7 -23 -10
-24 -16 0 -15 -1 2 -8 18 -7 18 -9 -7 -25 -46 -30 -73 -14 -103 62 -29 72 -82
162 -96 162 -10 0 0 -30 17 -50 22 -26 74 -148 74 -173 0 -31 -18 -47 -54 -47
-40 1 -62 18 -70 57 -4 17 -26 53 -48 78 -28 32 -45 64 -54 98 l-12 52 -1 -46
c-1 -33 5 -54 24 -79 13 -18 22 -37 20 -41 -3 -4 0 -11 6 -15 8 -5 10 -2 5 7
-4 8 1 3 13 -11 63 -78 7 -145 -106 -127 -47 8 -103 53 -128 103 -11 23 -32
55 -47 73 -33 38 -44 76 -56 201 -10 93 -45 210 -62 210 -5 0 -7 -7 -3 -17 11
-27 -71 24 -90 57 -21 35 -22 105 -1 184 12 44 14 81 9 135 -4 46 -1 102 6
144 l13 70 54 24 c113 53 299 64 418 26z"/>
<path d="M2154 1645 c-10 -8 -14 -15 -8 -15 6 0 17 7 24 15 16 19 9 19 -16 0z"/>
<path d="M3886 1657 c11 -30 36 -36 94 -22 30 7 46 14 35 14 -11 1 -36 -3 -55
-9 -29 -8 -37 -7 -58 12 -18 18 -22 19 -16 5z"/>
</g>
</svg>
