<?xml version="1.0" standalone="no"?>
<!DOCTYPE svg PUBLIC "-//W3C//DTD SVG 20010904//EN"
 "http://www.w3.org/TR/2001/REC-SVG-20010904/DTD/svg10.dtd">
<svg version="1.0" xmlns="http://www.w3.org/2000/svg"
 width="522.843850pt" height="1226.854881pt" viewBox="0 0 522.843850 1226.854881"
 preserveAspectRatio="xMidYMid meet">
<metadata>
Created by potrace 1.16, written by Peter Selinger 2001-2019
</metadata>
<g transform="translate(-0.000000,1226.880664) scale(0.100000,-0.100000)"
fill="#000000" stroke="none">
<path d="M2468 12254 c-167 -40 -302 -159 -354 -314 -15 -45 -19 -85 -19 -213
0 -149 -1 -158 -19 -153 -11 3 -28 -5 -43 -20 -24 -24 -25 -29 -19 -112 12
-162 67 -282 130 -282 14 0 26 -4 26 -10 0 -25 46 -126 81 -179 l40 -60 1
-128 c2 -158 -9 -199 -64 -248 -78 -71 -201 -118 -518 -197 -113 -28 -225 -60
-250 -71 -157 -74 -258 -301 -291 -657 -10 -112 -53 -387 -154 -981 -29 -169
-38 -206 -70 -270 -91 -180 -134 -324 -196 -663 -59 -322 -95 -482 -146 -640
-45 -140 -77 -216 -91 -216 -12 0 -121 -85 -174 -136 -27 -26 -67 -73 -89
-105 -51 -76 -139 -170 -200 -215 -38 -28 -49 -42 -49 -63 0 -39 28 -61 78
-61 57 0 81 11 154 72 109 91 100 87 92 37 -3 -24 -30 -142 -60 -263 -57 -229
-66 -313 -38 -340 40 -41 95 1 120 93 10 34 19 60 21 58 2 -2 -6 -47 -17 -100
-23 -108 -19 -141 17 -164 34 -23 69 -4 93 49 10 24 19 36 19 27 1 -9 9 -23
19 -32 50 -45 102 4 128 120 18 76 18 77 25 39 9 -52 37 -69 78 -46 25 13 44
65 70 185 12 55 43 181 68 280 43 169 46 189 48 325 2 119 7 159 25 220 30 98
116 308 241 589 198 443 261 632 279 830 5 59 22 142 44 216 44 149 146 556
146 583 0 12 5 24 10 27 6 3 10 -3 10 -15 0 -32 26 -154 83 -385 51 -209 51
-210 51 -370 -1 -216 -20 -288 -199 -740 -116 -295 -170 -486 -210 -744 -70
-449 -51 -824 75 -1506 122 -663 153 -858 170 -1100 14 -183 8 -261 -35 -480
-59 -297 -68 -389 -62 -670 5 -258 16 -357 71 -648 109 -573 137 -820 138
-1192 l0 -221 -62 -144 c-73 -173 -103 -228 -182 -337 -69 -97 -84 -128 -93
-204 -6 -45 -4 -59 10 -72 9 -10 21 -17 26 -17 5 0 9 -11 9 -25 0 -23 34 -65
53 -65 5 0 18 -11 29 -25 13 -17 29 -25 51 -25 17 0 40 -9 53 -21 22 -21 63
-27 102 -15 13 4 22 3 22 -3 0 -21 62 -43 109 -39 65 6 100 33 128 97 14 30
35 67 48 83 31 37 42 76 49 175 10 158 24 212 67 258 72 78 82 129 49 255 -17
64 -18 84 -9 138 8 47 8 79 -1 128 -8 40 -13 163 -13 317 -1 211 3 278 22 412
34 239 67 438 111 660 57 293 64 350 63 560 0 152 -5 232 -28 400 -33 239 -36
416 -11 530 8 39 20 138 26 220 13 193 14 197 66 610 94 752 118 993 130 1298
l7 187 43 0 44 0 0 -149 c0 -240 27 -526 120 -1291 33 -267 62 -537 65 -600 4
-63 15 -175 26 -248 26 -181 24 -306 -8 -540 -22 -164 -27 -236 -27 -427 -1
-244 3 -284 64 -596 35 -176 95 -564 111 -708 7 -68 9 -195 4 -370 -3 -146 -8
-322 -9 -391 -2 -69 -8 -141 -14 -160 -16 -47 -15 -123 2 -163 7 -18 28 -47
46 -66 37 -37 56 -100 65 -221 11 -141 15 -157 55 -217 22 -31 42 -69 45 -84
3 -14 21 -41 40 -59 46 -45 122 -53 175 -18 26 17 47 21 82 19 37 -2 50 1 65
18 11 13 29 21 49 21 22 0 39 8 51 23 10 12 32 29 48 37 17 9 34 29 40 45 5
17 15 34 22 38 30 19 34 45 18 116 -13 56 -29 86 -86 167 -75 105 -121 192
-197 379 l-49 120 -2 160 c-3 325 22 568 111 1060 101 563 99 548 105 826 6
293 -1 379 -54 639 -72 358 -60 562 82 1335 153 829 159 879 159 1285 1 344
-7 425 -65 695 -39 177 -100 366 -199 615 -144 359 -180 496 -180 680 0 100
15 185 90 500 23 96 44 196 47 223 6 48 23 66 23 23 0 -30 112 -481 150 -607
17 -53 33 -129 36 -170 17 -210 74 -388 277 -859 238 -555 261 -624 258 -786
-2 -105 17 -262 39 -319 5 -14 30 -118 55 -231 25 -114 52 -219 61 -235 27
-53 96 -50 102 5 5 44 16 30 34 -46 19 -76 48 -118 82 -118 31 0 46 13 55 46
l9 29 7 -32 c9 -40 47 -83 74 -83 11 0 29 12 41 28 26 32 24 73 -11 217 -11
48 -18 89 -16 91 3 3 15 -37 27 -88 15 -61 31 -100 46 -115 55 -55 112 -5 99
86 -4 25 -29 136 -55 246 -27 110 -52 225 -55 255 l-7 55 23 -20 c13 -11 45
-39 72 -63 56 -51 102 -72 157 -72 74 0 105 60 53 103 -81 66 -172 161 -220
229 -58 83 -155 177 -238 233 -50 33 -53 37 -88 137 -70 200 -99 325 -176 758
-50 279 -93 431 -169 597 -45 97 -63 147 -72 208 -10 70 -84 528 -125 780 -9
50 -22 162 -30 250 -33 343 -90 526 -201 640 -60 63 -117 87 -309 134 -393 97
-530 156 -586 254 -22 39 -24 52 -24 187 l1 145 30 45 c42 60 70 116 83 166 9
35 14 41 34 37 56 -11 113 101 129 253 12 113 1 147 -50 152 l-32 3 0 139 c0
163 -11 223 -54 305 -60 114 -180 204 -321 240 -73 19 -239 18 -317 -1z m310
-19 c183 -43 311 -166 348 -332 14 -65 16 -107 9 -287 -4 -116 -6 -226 -6
-244 1 -18 -6 -47 -15 -64 -9 -18 -27 -70 -39 -117 -42 -156 -94 -242 -201
-334 -105 -89 -136 -102 -244 -102 -123 0 -165 20 -280 135 -99 99 -129 151
-165 281 -15 52 -33 110 -40 129 -27 69 -45 476 -25 581 33 173 169 310 353
355 72 17 229 17 305 -1z m-680 -719 c3 -27 3 -28 -13 -12 -18 18 -36 17 -43
-2 -2 -7 2 -10 11 -6 24 9 50 -41 54 -100 1 -28 5 -62 8 -75 5 -19 3 -22 -7
-15 -8 5 -4 0 8 -11 24 -23 47 -102 33 -111 -18 -11 -58 26 -79 73 -29 64 -49
255 -30 278 21 26 54 15 58 -19z m1123 11 c17 -38 -5 -196 -37 -268 -25 -56
-47 -79 -74 -79 -21 0 -1 83 26 105 24 21 34 42 13 29 -8 -4 -9 1 -4 15 4 12
7 41 7 65 0 52 31 111 54 102 10 -4 14 -1 12 6 -7 21 -26 20 -47 -3 l-21 -23
0 25 c0 49 52 68 71 26z m-276 -754 c0 -168 6 -193 58 -243 82 -78 231 -139
491 -202 75 -18 133 -35 128 -39 -10 -11 -203 -37 -377 -51 -201 -17 -1039
-17 -1240 0 -144 12 -328 37 -370 49 -12 4 50 24 165 53 277 71 420 137 481
220 25 33 43 166 35 257 l-6 72 78 -62 c43 -35 97 -71 120 -80 49 -20 172 -23
223 -6 41 14 143 85 183 128 17 17 30 31 30 31 1 0 1 -57 1 -127z m-1351 -560
c9 -38 21 -99 26 -138 15 -108 12 -368 -5 -465 -8 -47 -15 -102 -15 -122 0
-24 -5 -38 -12 -38 -7 0 -69 7 -138 15 -69 8 -158 15 -199 15 l-74 0 7 88 c16
204 62 399 123 514 43 82 113 149 186 177 81 31 83 30 101 -46z m2195 29 c142
-70 231 -270 266 -597 9 -76 13 -145 11 -152 -4 -9 -28 -13 -78 -13 -40 0
-127 -7 -193 -15 -66 -8 -125 -15 -132 -15 -7 0 -14 15 -17 33 -2 17 -12 81
-22 140 -27 169 -11 454 32 605 15 52 16 53 47 47 18 -4 56 -18 86 -33z
m-2067 9 c450 -76 1488 -68 1900 15 l28 6 -14 -40 c-36 -102 -57 -418 -36
-557 6 -44 14 -135 17 -202 7 -161 -13 -235 -87 -316 -73 -80 -145 -109 -280
-115 -145 -6 -254 24 -390 108 l-35 22 35 -32 c85 -77 217 -120 368 -120 134
0 222 31 305 109 l38 36 -7 -45 c-7 -50 -55 -276 -108 -510 -19 -85 -38 -171
-41 -191 -5 -35 -7 -37 -53 -42 -340 -43 -1109 -43 -1478 0 l-52 5 -17 87 c-9
47 -34 161 -56 253 -22 92 -48 218 -59 280 -11 62 -23 124 -26 137 -4 21 0 19
41 -17 60 -53 115 -79 206 -98 158 -34 346 8 486 109 62 44 45 45 -26 2 -128
-79 -280 -113 -424 -95 -271 34 -384 232 -321 561 29 150 10 548 -31 652 -4 9
-5 17 -2 17 3 0 56 -9 119 -19z m-216 -811 l83 -12 6 -46 c3 -26 15 -74 26
-107 33 -95 33 -131 4 -261 -33 -148 -107 -440 -142 -555 l-25 -86 -35 38
c-19 21 -65 53 -101 71 -55 27 -81 34 -147 36 -58 3 -92 -1 -119 -12 -21 -9
-39 -16 -40 -16 -3 0 2 26 94 580 34 206 63 380 65 385 3 12 205 3 331 -15z
m2568 8 c2 -13 30 -185 61 -383 31 -198 64 -408 74 -466 l18 -107 -44 15 c-29
10 -70 14 -121 12 -96 -5 -192 -48 -245 -110 l-35 -40 -20 68 c-55 183 -172
679 -172 732 0 15 9 48 20 73 10 24 24 76 31 115 l12 71 131 16 c72 9 160 18
196 19 36 2 71 4 77 5 7 1 15 -8 17 -20z m-2764 -978 c95 -48 148 -108 136
-154 -7 -30 -67 -55 -153 -63 -115 -11 -250 43 -287 115 -20 40 -3 100 33 115
73 29 199 24 271 -13z m2879 16 c46 -15 69 -72 46 -116 -37 -71 -171 -126
-284 -117 -77 5 -148 31 -156 57 -20 63 102 165 227 189 48 9 115 4 167 -13z
m-3174 -155 c86 -95 277 -126 398 -66 l30 15 -7 -68 c-17 -187 -101 -419 -341
-947 -15 -33 -55 -128 -89 -212 l-62 -152 -39 26 c-52 35 -159 72 -233 79
l-60 7 13 36 c30 85 98 383 140 616 50 268 71 360 108 470 24 70 97 235 103
235 2 0 20 -18 39 -39z m3278 -18 c91 -205 110 -278 188 -713 37 -212 95 -469
125 -552 l13 -38 -32 0 c-59 0 -161 -31 -233 -69 l-70 -38 -56 141 c-31 78
-103 249 -161 381 -175 403 -248 621 -264 787 l-6 70 24 -15 c13 -8 52 -21 86
-27 114 -23 257 20 319 94 16 19 32 35 35 35 4 1 18 -25 32 -56z m-2193 27
c69 -5 303 -10 520 -10 355 0 480 5 718 26 l72 7 0 -79 c0 -117 25 -241 82
-409 28 -82 53 -156 55 -163 7 -16 -64 -47 -164 -72 -407 -100 -1090 -103
-1502 -4 -135 32 -195 58 -188 81 3 10 28 83 56 163 56 162 81 286 81 404 l0
79 73 -7 c39 -3 128 -11 197 -16z m-380 -675 c69 -36 257 -75 475 -100 455
-52 1044 -10 1303 92 35 14 65 23 66 21 8 -8 117 -301 146 -388 33 -103 80
-280 80 -303 0 -11 -20 -16 -77 -22 -230 -20 -447 -95 -633 -219 -126 -85
-215 -167 -301 -283 -76 -100 -94 -113 -163 -113 -54 0 -83 22 -138 103 -97
144 -301 309 -481 391 -143 65 -306 107 -478 122 l-76 6 18 74 c44 184 201
634 222 634 4 0 21 -7 37 -15z m-915 -709 c38 -15 83 -38 101 -51 l33 -25 -20
-58 c-10 -31 -21 -62 -23 -68 -3 -8 -33 0 -88 22 -46 18 -122 44 -169 56 l-86
23 25 69 26 69 66 -6 c36 -3 97 -17 135 -31z m3846 -33 l26 -67 -66 -17 c-55
-14 -196 -64 -261 -93 -22 -9 -65 121 -48 142 34 41 196 100 278 101 l45 1 26
-67z m-2961 1 c317 -65 603 -243 767 -477 30 -42 64 -84 76 -92 21 -15 22 -21
20 -192 -3 -200 -28 -488 -78 -898 -82 -679 -107 -882 -112 -913 l-4 -34 -53
50 c-88 83 -190 122 -321 122 -122 0 -225 -39 -295 -112 -22 -22 -40 -36 -40
-31 0 65 -50 370 -140 853 -119 640 -146 909 -129 1268 7 152 40 427 56 468 5
14 17 16 92 10 47 -4 120 -14 161 -22z m2119 -26 c44 -208 62 -596 42 -858
-16 -205 -41 -373 -107 -735 -100 -542 -132 -729 -144 -830 -16 -138 -14 -135
-63 -87 -87 85 -239 122 -380 93 -83 -18 -188 -74 -236 -126 -23 -25 -43 -45
-45 -45 -2 0 -6 44 -10 98 -4 53 -27 255 -51 447 -86 676 -125 1095 -125 1342
0 139 1 143 24 158 13 9 40 40 60 71 82 123 244 269 396 355 169 96 407 164
582 168 l47 1 10 -52z m-3122 -100 c50 -15 116 -39 147 -53 l54 -24 8 -57 c10
-82 -1 -181 -36 -324 -17 -69 -49 -203 -71 -299 -42 -188 -57 -224 -92 -219
-32 4 -33 40 -1 214 27 152 27 153 57 164 46 15 29 19 -43 8 -75 -11 -161 -4
-240 18 -91 26 -97 26 -67 9 22 -13 27 -21 21 -38 -4 -12 -31 -105 -61 -207
-56 -192 -74 -227 -112 -215 -34 10 -27 78 33 321 30 120 57 242 61 270 l6 51
54 12 c81 18 150 57 200 113 62 69 57 81 -7 15 -60 -60 -119 -92 -205 -110
-72 -16 -90 -26 -160 -89 -62 -56 -106 -78 -157 -78 -37 0 -68 23 -60 44 3 7
34 37 69 66 71 59 127 122 197 220 41 60 127 139 223 207 35 25 48 24 182 -19z
m4106 -35 c71 -58 117 -105 176 -183 72 -96 115 -142 209 -223 49 -42 38 -77
-25 -77 -51 0 -101 25 -158 79 -63 60 -77 67 -170 91 -95 24 -127 41 -192 103
-66 62 -69 53 -5 -15 51 -56 139 -103 208 -114 l42 -6 7 -56 c4 -32 28 -149
55 -262 60 -252 65 -283 50 -309 -13 -26 -42 -27 -62 -3 -9 9 -41 109 -72 222
-54 192 -56 205 -40 217 10 7 21 13 26 13 4 0 8 5 8 10 0 6 -14 5 -34 -4 -19
-8 -69 -22 -111 -31 -73 -17 -106 -17 -235 0 l-35 5 32 -15 c35 -16 31 -5 73
-232 23 -124 18 -157 -23 -151 -30 4 -41 31 -76 188 -17 74 -46 203 -66 285
-39 163 -56 356 -37 407 9 20 28 33 91 57 78 30 235 79 257 80 5 1 54 -34 107
-76z m-4272 -569 c33 -6 38 -10 34 -28 -53 -229 -108 -443 -120 -465 -17 -34
-33 -42 -57 -29 -28 14 -23 76 27 301 25 113 45 213 45 222 0 12 5 15 16 11 9
-3 33 -9 55 -12z m4264 -45 c91 -429 96 -469 59 -483 -28 -11 -53 13 -69 67
-21 76 -107 449 -103 452 6 5 83 23 92 21 5 -1 15 -27 21 -57z m-4095 26 c0
-26 -88 -380 -106 -423 -25 -63 -83 -70 -84 -10 0 16 75 382 86 420 3 11 18
18 42 21 20 2 43 4 50 5 6 1 12 -5 12 -13z m3917 5 c29 0 33 -3 39 -37 3 -21
22 -109 40 -195 38 -177 42 -233 18 -242 -26 -10 -51 2 -63 32 -8 21 -58 221
-107 431 -4 21 -2 23 18 17 13 -3 37 -6 55 -6z m-2451 -1737 c71 -28 140 -77
175 -126 30 -41 31 -43 24 -127 -11 -132 -22 -184 -50 -244 -62 -132 -152
-215 -254 -235 -102 -20 -199 8 -262 75 -87 94 -115 178 -124 379 l-6 150 31
38 c37 44 105 86 169 104 67 19 232 11 297 -14z m1292 -14 c43 -22 77 -49 98
-76 l32 -42 -5 -138 c-7 -196 -39 -296 -124 -388 -52 -57 -113 -80 -201 -79
-88 2 -160 36 -225 108 -91 99 -125 189 -138 358 -7 89 -6 100 14 132 65 105
216 168 384 162 88 -3 105 -6 165 -37z m-1768 -495 c0 -21 38 -93 71 -135 16
-21 52 -52 80 -70 44 -28 62 -33 130 -37 48 -3 97 0 125 8 63 18 138 79 185
153 22 33 40 62 42 63 1 1 1 -46 0 -104 -1 -106 -1 -107 -30 -125 -39 -24
-114 -46 -202 -58 -137 -19 -305 17 -394 85 -47 36 -47 38 -32 173 4 40 12 70
16 67 5 -3 9 -12 9 -20z m1904 -79 c8 -53 10 -97 5 -106 -14 -28 -99 -78 -169
-100 -127 -41 -333 -25 -450 34 l-44 23 -2 107 -2 107 48 -68 c82 -117 159
-161 283 -162 91 0 150 23 209 82 38 38 97 143 99 175 1 29 8 3 23 -92z
m-1908 -156 c10 -17 123 -65 182 -78 132 -28 342 -3 428 49 l30 19 25 -182
c20 -155 24 -220 23 -442 0 -221 -4 -276 -21 -365 -121 -608 -183 -1059 -171
-1245 3 -56 3 -56 -22 -51 -128 30 -239 30 -333 2 l-43 -13 -12 161 c-14 196
-45 406 -116 801 -76 418 -81 469 -81 775 1 228 4 283 23 395 33 190 39 208
62 195 10 -6 22 -15 26 -21z m1953 -89 c34 -181 44 -316 38 -553 -5 -240 -14
-311 -82 -687 -86 -479 -110 -642 -124 -841 -5 -66 -11 -122 -13 -124 -2 -3
-36 2 -74 10 -38 8 -91 15 -119 15 -49 0 -152 -19 -189 -35 -18 -8 -18 -4 -12
56 17 161 -28 520 -139 1114 -46 249 -59 389 -52 580 5 135 28 355 53 507 l5
36 32 -18 c100 -58 325 -79 458 -42 69 19 146 59 169 87 7 9 17 12 21 8 4 -4
17 -55 28 -113z m-1564 -2210 c33 -5 72 -15 88 -21 27 -11 27 -13 27 -100 0
-49 -2 -89 -4 -89 -2 0 -23 7 -47 17 -75 28 -252 21 -342 -13 -9 -3 -13 21
-15 85 -2 88 -2 88 25 100 70 29 172 37 268 21z m1342 -13 l38 -12 3 -94 c3
-87 1 -93 -15 -86 -33 14 -138 35 -178 35 -39 0 -153 -21 -187 -35 -16 -7 -18
1 -18 84 0 90 1 92 26 102 79 29 250 33 331 6z m-1275 -204 c52 -18 53 -18 61
-68 5 -30 4 -74 -2 -111 -9 -52 -8 -72 10 -140 13 -51 18 -94 15 -123 -7 -53
-43 -114 -63 -107 -25 10 -56 -114 -69 -274 -8 -109 -13 -127 -53 -178 -16
-20 -34 -53 -40 -73 -17 -54 -52 -81 -108 -86 -28 -2 -58 2 -73 9 -45 24 -38
67 31 175 11 18 19 41 17 50 -4 19 -37 -30 -79 -117 -12 -25 -25 -52 -29 -60
-10 -21 -80 -20 -94 2 -12 20 -1 59 45 152 16 33 27 61 25 64 -10 9 -63 -80
-81 -137 -18 -54 -23 -61 -46 -61 -46 0 -55 23 -35 88 10 31 29 74 42 94 27
41 29 48 14 48 -13 0 -57 -77 -76 -134 -17 -50 -24 -54 -49 -29 -22 21 -14 78
20 146 27 52 30 67 16 67 -9 0 -61 -110 -61 -129 0 -21 -30 -11 -35 12 -7 27
10 107 30 147 8 16 40 63 71 107 64 88 120 195 190 363 44 105 48 121 48 199
1 82 2 86 27 98 73 35 234 38 331 6z m1258 7 c61 -18 62 -20 61 -108 -1 -78 1
-85 64 -234 77 -178 119 -258 185 -348 61 -83 66 -94 83 -168 12 -51 12 -65 1
-79 -15 -21 -12 -24 -53 60 -18 37 -36 67 -42 67 -13 0 -11 -9 10 -44 11 -17
26 -55 35 -85 14 -49 14 -57 1 -78 -24 -36 -40 -28 -59 30 -18 55 -62 127 -79
127 -5 0 -1 -12 9 -28 28 -43 42 -73 55 -124 10 -38 10 -49 0 -62 -18 -21 -71
-21 -71 0 0 21 -39 112 -62 147 -35 50 -36 28 -2 -42 64 -127 63 -161 -5 -161
-42 0 -55 10 -64 51 -4 14 -22 52 -42 84 -19 33 -35 62 -35 67 0 4 -5 8 -11 8
-18 0 -1 -47 36 -102 59 -85 40 -148 -43 -148 -69 0 -132 50 -132 104 0 8 -14
31 -31 51 -38 43 -59 109 -59 186 0 58 -21 187 -40 245 -7 20 -17 31 -27 30
-10 0 -27 16 -40 39 -21 35 -23 49 -19 110 2 39 11 89 20 112 12 34 13 54 4
106 -6 36 -7 86 -4 111 8 52 17 58 116 82 59 15 181 11 240 -6z"/>
</g>
</svg>
